<?xml version="1.0" standalone="no"?>
<!DOCTYPE svg PUBLIC "-//W3C//DTD SVG 20010904//EN"
 "http://www.w3.org/TR/2001/REC-SVG-20010904/DTD/svg10.dtd">
<svg version="1.0" xmlns="http://www.w3.org/2000/svg"
 width="34.000000pt" height="34.000000pt" viewBox="0 0 34.000000 34.000000"
 preserveAspectRatio="xMidYMid meet">

<g transform="translate(0.000000,34.000000) scale(0.100000,-0.100000)"
fill="#000000" stroke="none">
<path d="M30 273 c0 -5 7 -18 15 -30 8 -12 12 -28 9 -37 -4 -9 0 -18 10 -22
13 -5 14 -17 9 -64 -3 -37 -2 -60 6 -64 8 -5 6 -14 -4 -30 -15 -22 -14 -22 34
-25 30 -1 52 3 57 10 4 7 3 9 -3 6 -5 -3 -9 4 -8 15 1 12 7 24 14 26 8 3 12
-3 11 -14 -4 -38 0 -44 34 -44 l34 0 7 59 c4 37 3 67 -4 79 -8 16 -8 24 4 36
8 8 15 23 15 33 0 10 7 27 15 37 8 11 15 24 15 28 0 14 -57 -20 -64 -37 -3 -9
-11 -13 -17 -9 -8 5 -8 1 0 -14 16 -31 14 -35 -11 -18 -12 9 -32 16 -43 16
-11 0 -31 -7 -43 -16 -25 -17 -27 -13 -11 18 7 13 7 18 1 14 -6 -4 -14 0 -19
7 -11 18 -63 52 -63 40z m170 -98 c10 -12 10 -19 2 -27 -17 -17 -15 -27 6 -24
20 4 32 -11 25 -31 -8 -19 -22 -16 -43 10 l-18 22 -26 -24 c-21 -19 -28 -22
-40 -12 -23 19 -9 39 22 33 26 -5 26 -5 10 20 -12 19 -14 28 -5 37 16 16 52
14 67 -4z m-10 -91 c0 -2 -9 -4 -21 -4 -11 0 -18 4 -14 10 5 8 35 3 35 -6z"/>
</g>
</svg>
